<svg width="28" height="22" viewBox="0 0 28 22" fill="none" xmlns="http://www.w3.org/2000/svg">
<path fill-rule="evenodd" clip-rule="evenodd" d="M10.0729 0.401141C9.59795 0.571814 8.20036 1.74824 7.67381 2.42042C7.52092 2.61579 7.26545 2.65917 6.26944 2.65917C3.40473 2.65917 1.83226 3.47542 0.912285 5.44L0.521484 6.27453V12.2092C0.521484 17.4901 0.547473 18.2078 0.757872 18.7251C1.33557 20.1465 2.4166 21.1452 3.82345 21.5575C4.84821 21.8578 23.1513 21.8578 24.176 21.5575C25.1719 21.2657 26.0658 20.6274 26.6212 19.8117C27.4826 18.5464 27.478 18.5871 27.478 12.141V6.27453L27.0764 5.41626C26.5904 4.37763 25.5037 3.3394 24.5454 2.99847C24.1228 2.84812 23.2845 2.73789 22.2249 2.69328L20.5661 2.62356L19.5549 1.65233C18.9987 1.11807 18.3767 0.588867 18.1725 0.476313C17.6338 0.179308 10.8648 0.116415 10.0729 0.401141ZM17.3979 1.84483C17.604 1.92218 18.2661 2.45944 18.8689 3.03858L19.965 4.09167L21.7862 4.16998C23.7635 4.25498 24.3361 4.42265 25.0482 5.12539C25.9111 5.97698 25.9006 5.88298 25.858 12.3976L25.8191 18.3253L25.3983 18.9167C25.1668 19.2419 24.7002 19.6616 24.3616 19.8492L23.7456 20.1902H13.9997H4.25393L3.63793 19.8492C3.29925 19.6616 2.83269 19.2419 2.60115 18.9167L2.18035 18.3253L2.1415 12.3976C2.09879 5.85842 2.08455 5.98244 2.97522 5.12307C3.71991 4.4045 4.22821 4.25525 6.22065 4.16998L8.04913 4.09167L9.05454 3.10966C10.537 1.66161 10.3823 1.70594 13.9562 1.70499C15.7299 1.70458 17.181 1.76352 17.3979 1.84483ZM12.3554 5.86784C8.99952 6.79773 6.98262 10.2038 7.84744 13.4807C8.15018 14.6279 8.54679 15.3073 9.46386 16.2498C11.4025 18.2423 14.3864 18.7557 16.8513 17.521C17.8388 17.0265 19.186 15.7327 19.6514 14.8324C20.7358 12.7347 20.5167 10.0835 19.105 8.22C18.4172 7.31193 17.2736 6.44957 16.2481 6.06525C15.2063 5.67479 13.3851 5.58243 12.3554 5.86784ZM21.2787 6.18299C21.0111 6.47481 20.9786 7.03635 21.2158 7.27046C21.3177 7.37101 21.8162 7.43417 22.5076 7.43417C23.4229 7.43417 23.6764 7.38751 23.8624 7.18464C24.1664 6.85312 24.151 6.53825 23.8147 6.20632C23.4262 5.82295 21.624 5.80644 21.2787 6.18299ZM16.0024 7.6204C16.9663 8.05601 17.9343 9.0177 18.3968 9.99958C18.7023 10.648 18.763 10.9686 18.763 11.9363C18.763 13.3559 18.3689 14.3166 17.3905 15.2821C16.428 16.2319 15.4465 16.619 13.9997 16.619C12.5529 16.619 11.5714 16.2319 10.609 15.2821C9.63058 14.3166 9.23646 13.3559 9.23646 11.9363C9.23646 10.9686 9.29714 10.648 9.60265 9.99958C10.216 8.6975 11.4895 7.64168 12.8571 7.30116C13.6976 7.09201 15.1616 7.24058 16.0024 7.6204Z" fill="#A0A4AB"/>
</svg>
