<svg width="62" height="62" viewBox="0 0 62 62" fill="none" xmlns="http://www.w3.org/2000/svg">
<circle opacity="0.5" cx="31" cy="31" r="31" fill="#A0A4AB"/>
<path fill-rule="evenodd" clip-rule="evenodd" d="M26.6328 14.9316C25.7982 15.237 25.5439 16.2751 26.1662 16.8361C26.4403 17.0832 26.8085 17.1518 28.0988 17.1965L29.6926 17.2514V17.6884C29.6926 18.1098 29.6482 18.1322 28.4545 18.3169C22.4847 19.2403 17.5196 23.9851 16.3931 29.8429C16.1008 31.3625 16.1008 34.0043 16.3931 35.5239C17.473 41.1399 22.1002 45.7697 27.7936 46.9309C29.3855 47.2555 32.098 47.255 33.6853 46.9296C39.4383 45.7502 43.9045 41.2694 45.08 35.498C45.4142 33.8569 45.3312 30.4915 44.9198 28.9982C44.3316 26.8633 43.1705 24.6895 41.7766 23.1141L41.1431 22.3981L41.7485 21.8099L42.3538 21.2217L42.7418 21.6325C43.2624 22.1839 44.0986 22.131 44.5568 21.5178C45.0265 20.8891 44.7632 20.4129 42.9883 18.6811C41.7457 17.4687 41.4067 17.2214 40.9875 17.2214C39.8979 17.2214 39.4843 18.3583 40.2751 19.1794L40.7115 19.6327L40.0737 20.2542L39.4358 20.8756L38.0819 20.0948C36.5643 19.2195 34.8532 18.606 33.1148 18.3139C31.9907 18.125 31.9473 18.1009 31.9473 17.6694V17.2214H33.1602C33.8324 17.2214 34.6126 17.1219 34.91 16.9984C35.869 16.5996 35.8209 15.3404 34.8335 14.998C34.3041 14.8143 27.1124 14.7562 26.6328 14.9316ZM33.4455 20.6777C34.0829 20.816 35.3625 21.2984 36.2889 21.7495C37.7491 22.4606 38.1684 22.7631 39.4379 24.0215C40.6269 25.1998 41.046 25.7515 41.6645 26.9514C42.6851 28.9317 43.0734 30.4779 43.084 32.6033C43.097 35.2371 42.4712 37.3606 41.0592 39.4737C40.1485 40.8368 38.301 42.5868 36.9329 43.3828C34.7807 44.6347 31.7324 45.2626 29.3699 44.9407C26.4582 44.5441 24.3414 43.5618 22.3282 41.6727C19.6608 39.1698 18.377 36.2097 18.3948 32.6033C18.4126 29.0397 19.7505 26.0662 22.4583 23.5718C23.8138 22.3233 25.9179 21.1948 27.7057 20.7578C29.2981 20.3685 31.8569 20.3328 33.4455 20.6777ZM29.9923 24.5777L29.6121 24.8839V28.8868C29.6121 32.5983 29.6345 32.9145 29.9189 33.2272C30.2096 33.5471 30.3806 33.5647 33.1801 33.5647C35.9198 33.5647 36.1578 33.5414 36.4565 33.2442C36.92 32.7831 36.8735 32.0598 36.3543 31.6536C35.9772 31.3585 35.7093 31.3215 33.9507 31.3215H31.9714L31.9191 28.1025C31.8677 24.9423 31.8598 24.8779 31.4865 24.5775C31.0027 24.1882 30.476 24.1882 29.9923 24.5777Z" fill="#FCFCFC"/>
</svg>
