<svg width="62" height="62" viewBox="0 0 62 62" fill="none" xmlns="http://www.w3.org/2000/svg">
<circle cx="30.9999" cy="30.9999" r="27.5556" fill="#FCFCFC"/>
<path fill-rule="evenodd" clip-rule="evenodd" d="M27.0729 20.4011C26.598 20.5718 25.2004 21.7482 24.6738 22.4204C24.5209 22.6158 24.2655 22.6592 23.2694 22.6592C20.4047 22.6592 18.8323 23.4754 17.9123 25.44L17.5215 26.2745V32.2092C17.5215 37.4901 17.5475 38.2078 17.7579 38.7251C18.3356 40.1465 19.4166 41.1452 20.8235 41.5575C21.8482 41.8578 40.1513 41.8578 41.176 41.5575C42.1719 41.2657 43.0658 40.6274 43.6212 39.8117C44.4826 38.5464 44.478 38.5871 44.478 32.141V26.2745L44.0764 25.4163C43.5904 24.3776 42.5037 23.3394 41.5454 22.9985C41.1228 22.8481 40.2845 22.7379 39.2249 22.6933L37.5661 22.6236L36.5549 21.6523C35.9987 21.1181 35.3767 20.5889 35.1725 20.4763C34.6338 20.1793 27.8648 20.1164 27.0729 20.4011ZM34.3979 21.8448C34.604 21.9222 35.2661 22.4594 35.8689 23.0386L36.965 24.0917L38.7862 24.17C40.7635 24.255 41.3361 24.4226 42.0482 25.1254C42.9111 25.977 42.9006 25.883 42.858 32.3976L42.8191 38.3253L42.3983 38.9167C42.1668 39.2419 41.7002 39.6616 41.3616 39.8492L40.7456 40.1902H30.9997H21.2539L20.6379 39.8492C20.2992 39.6616 19.8327 39.2419 19.6011 38.9167L19.1803 38.3253L19.1415 32.3976C19.0988 25.8584 19.0845 25.9824 19.9752 25.1231C20.7199 24.4045 21.2282 24.2552 23.2206 24.17L25.0491 24.0917L26.0545 23.1097C27.537 21.6616 27.3823 21.7059 30.9562 21.705C32.7299 21.7046 34.181 21.7635 34.3979 21.8448ZM29.3554 25.8678C25.9995 26.7977 23.9826 30.2038 24.8474 33.4807C25.1502 34.6279 25.5468 35.3073 26.4639 36.2498C28.4025 38.2423 31.3864 38.7557 33.8513 37.521C34.8388 37.0265 36.186 35.7327 36.6514 34.8324C37.7358 32.7347 37.5167 30.0835 36.105 28.22C35.4172 27.3119 34.2736 26.4496 33.2481 26.0652C32.2063 25.6748 30.3851 25.5824 29.3554 25.8678ZM38.2787 26.183C38.0111 26.4748 37.9786 27.0363 38.2158 27.2705C38.3177 27.371 38.8162 27.4342 39.5076 27.4342C40.4229 27.4342 40.6764 27.3875 40.8624 27.1846C41.1664 26.8531 41.151 26.5382 40.8147 26.2063C40.4262 25.823 38.624 25.8064 38.2787 26.183ZM33.0024 27.6204C33.9663 28.056 34.9343 29.0177 35.3968 29.9996C35.7023 30.648 35.763 30.9686 35.763 31.9363C35.763 33.3559 35.3689 34.3166 34.3905 35.2821C33.428 36.2319 32.4465 36.619 30.9997 36.619C29.5529 36.619 28.5714 36.2319 27.609 35.2821C26.6306 34.3166 26.2365 33.3559 26.2365 31.9363C26.2365 30.9686 26.2971 30.648 26.6027 29.9996C27.216 28.6975 28.4895 27.6417 29.8571 27.3012C30.6976 27.092 32.1616 27.2406 33.0024 27.6204Z" fill="#A0A4AB"/>
<circle cx="31" cy="31" r="30" stroke="#FCFCFC" stroke-width="2"/>
</svg>
