<svg width="30" height="34" viewBox="0 0 30 34" fill="none" xmlns="http://www.w3.org/2000/svg">
<path opacity="0.5" fill-rule="evenodd" clip-rule="evenodd" d="M10.6328 0.931635C9.79824 1.23703 9.54395 2.27514 10.1662 2.8361C10.4403 3.08317 10.8085 3.15175 12.0988 3.19645L13.6926 3.25141V3.68835C13.6926 4.10975 13.6482 4.13218 12.4545 4.31693C6.48474 5.24032 1.51956 9.98514 0.393051 15.8429C0.100754 17.3625 0.100754 20.0043 0.393051 21.5239C1.47302 27.1399 6.10016 31.7697 11.7936 32.9309C13.3855 33.2555 16.098 33.255 17.6853 32.9296C23.4383 31.7502 27.9045 27.2694 29.08 21.498C29.4142 19.8569 29.3312 16.4915 28.9198 14.9982C28.3316 12.8633 27.1705 10.6895 25.7766 9.11414L25.1431 8.39809L25.7485 7.80989L26.3538 7.22169L26.7418 7.63252C27.2624 8.18386 28.0986 8.13099 28.5568 7.5178C29.0265 6.88906 28.7632 6.41287 26.9883 4.68112C25.7457 3.46868 25.4067 3.22145 24.9875 3.22145C23.8979 3.22145 23.4843 4.35827 24.2751 5.17943L24.7115 5.63272L24.0737 6.25424L23.4358 6.8756L22.0819 6.09481C20.5643 5.21949 18.8532 4.60598 17.1148 4.31388C15.9907 4.12497 15.9473 4.10094 15.9473 3.66945V3.22145H17.1602C17.8324 3.22145 18.6126 3.12195 18.91 2.99841C19.869 2.59961 19.8209 1.34038 18.8335 0.997969C18.3041 0.814348 11.1124 0.756186 10.6328 0.931635ZM17.4455 6.67772C18.0829 6.816 19.3625 7.29844 20.2889 7.74949C21.7491 8.46058 22.1684 8.76309 23.4379 10.0215C24.6269 11.1998 25.046 11.7515 25.6645 12.9514C26.6851 14.9317 27.0734 16.4779 27.084 18.6033C27.097 21.2371 26.4712 23.3606 25.0592 25.4737C24.1485 26.8368 22.301 28.5868 20.9329 29.3828C18.7807 30.6347 15.7324 31.2626 13.3699 30.9407C10.4582 30.5441 8.34143 29.5618 6.3282 27.6727C3.66081 25.1698 2.37696 22.2097 2.39484 18.6033C2.41255 15.0397 3.75052 12.0662 6.45833 9.57176C7.81384 8.32326 9.9179 7.19478 11.7057 6.75784C13.2981 6.36848 15.8569 6.33275 17.4455 6.67772ZM13.9923 10.5777L13.6121 10.8839V14.8868C13.6121 18.5983 13.6345 18.9145 13.9189 19.2272C14.2096 19.5471 14.3806 19.5647 17.1801 19.5647C19.9198 19.5647 20.1578 19.5414 20.4565 19.2442C20.92 18.7831 20.8735 18.0598 20.3543 17.6536C19.9772 17.3585 19.7093 17.3215 17.9507 17.3215H15.9714L15.9191 14.1025C15.8677 10.9423 15.8598 10.8779 15.4865 10.5775C15.0027 10.1882 14.476 10.1882 13.9923 10.5777Z" fill="#FCFCFC"/>
</svg>
